<svg width="48" height="48" viewBox="0 0 48 48" fill="none" xmlns="http://www.w3.org/2000/svg">
<g opacity="0.3">
<rect width="48" height="48" rx="24" fill="#3CB1EC"/>
</g>
<path d="M36.45 32.415L11.745 33.705C11.13 33.735 10.59 33.255 10.56 32.64C10.53 32.025 11.01 31.485 11.625 31.455L36.345 30.165C36.96 30.135 37.5 30.615 37.53 31.23C37.56 31.845 37.08 32.385 36.45 32.415ZM36.375 35.235H11.625C11.01 35.235 10.5 35.745 10.5 36.36C10.5 36.975 11.01 37.485 11.625 37.485H36.375C36.99 37.485 37.5 36.975 37.5 36.36C37.5 35.745 36.99 35.235 36.375 35.235ZM39 13.515V24.015C39 25.665 37.65 27.015 36 27.015H12C10.35 27.015 9 25.665 9 24.015V13.515C9 11.865 10.35 10.515 12 10.515H36C37.65 10.515 39 11.865 39 13.515ZM34.68 15.15C32.805 15.555 31.395 16.815 31.185 18.36C30.225 17.265 27.09 14.265 21.375 14.265C16.215 14.265 13.155 16.71 11.91 18C11.49 18.435 11.49 19.11 11.91 19.545C13.155 20.835 16.215 23.28 21.375 23.28C27.09 23.28 30.225 20.28 31.185 19.185C31.395 20.715 32.805 21.975 34.68 22.395C35.37 22.545 36 21.975 36 21.285V16.275C36 15.57 35.355 15 34.68 15.15Z" fill="#0D5B82"/>
</svg>
