<svg width="48" height="48" viewBox="0 0 48 48" fill="none" xmlns="http://www.w3.org/2000/svg">
<g opacity="0.3">
<rect width="48" height="48" rx="24" fill="#3CB1EC"/>
</g>
<path d="M34.5 15.75H31.5C31.5 11.61 28.14 8.25 24 8.25C19.86 8.25 16.5 11.61 16.5 15.75H13.5C11.85 15.75 10.5 17.1 10.5 18.75V36.75C10.5 38.4 11.85 39.75 13.5 39.75H34.5C36.15 39.75 37.5 38.4 37.5 36.75V18.75C37.5 17.1 36.15 15.75 34.5 15.75ZM24 11.25C26.49 11.25 28.5 13.26 28.5 15.75H19.5C19.5 13.26 21.51 11.25 24 11.25ZM24 26.25C20.505 26.25 17.565 23.865 16.74 20.625C16.485 19.68 17.22 18.75 18.195 18.75C18.9 18.75 19.47 19.26 19.665 19.95C20.19 21.855 21.93 23.25 24 23.25C26.07 23.25 27.81 21.855 28.335 19.95C28.53 19.26 29.1 18.75 29.805 18.75C30.78 18.75 31.5 19.68 31.26 20.625C30.435 23.865 27.495 26.25 24 26.25Z" fill="#0D5B82"/>
</svg>
