<svg width="48" height="48" viewBox="0 0 48 48" fill="none" xmlns="http://www.w3.org/2000/svg">
<g opacity="0.3">
<rect width="48" height="48" rx="24" fill="#3CB1EC"/>
</g>
<path d="M30.36 17.64C28.605 15.885 26.31 15 24 15V24L17.64 30.36C21.15 33.87 26.85 33.87 30.375 30.36C33.885 26.85 33.885 21.15 30.36 17.64ZM24 9C15.72 9 9 15.72 9 24C9 32.28 15.72 39 24 39C32.28 39 39 32.28 39 24C39 15.72 32.28 9 24 9ZM24 36C17.37 36 12 30.63 12 24C12 17.37 17.37 12 24 12C30.63 12 36 17.37 36 24C36 30.63 30.63 36 24 36Z" fill="#0D5B82"/>
</svg>
