<svg width="48" height="48" viewBox="0 0 48 48" fill="none" xmlns="http://www.w3.org/2000/svg">
<g opacity="0.3">
<rect width="48" height="48" rx="24" fill="#3CB1EC"/>
</g>
<path d="M12.7078 15H15.7078V16.5C15.7078 18.15 17.0578 19.5 18.7078 19.5H27.7078C29.3578 19.5 30.7078 18.15 30.7078 16.5V15H33.7078V22.5H36.7078V15C36.7078 13.35 35.3578 12 33.7078 12H27.4378C26.8078 10.26 25.1578 9 23.2078 9C21.2578 9 19.6078 10.26 18.9778 12H12.7078C11.0578 12 9.70776 13.35 9.70776 15V36C9.70776 37.65 11.0578 39 12.7078 39H21.7078V36H12.7078V15ZM23.2078 12C24.0328 12 24.7078 12.675 24.7078 13.5C24.7078 14.325 24.0328 15 23.2078 15C22.3828 15 21.7078 14.325 21.7078 13.5C21.7078 12.675 22.3828 12 23.2078 12Z" fill="#0D5B82"/>
<path d="M37.8328 25.875C37.2178 25.26 36.1978 25.26 35.5828 25.875L28.4728 33L25.0828 29.625C24.4678 29.01 23.4628 29.01 22.8328 29.625C22.2178 30.24 22.2178 31.26 22.8328 31.875L27.4078 36.435C27.9928 37.02 28.9378 37.02 29.5228 36.435L37.8178 28.125C38.4478 27.51 38.4478 26.49 37.8328 25.875Z" fill="#0D5B82"/>
</svg>
