<svg width="32" height="32" viewBox="0 0 32 32" fill="none" xmlns="http://www.w3.org/2000/svg">
<path d="M24.6667 2.66669H12.6667C11.2 2.66669 10 3.86669 10 5.33335V21.3334C10 22.8 11.2 24 12.6667 24H24.6667C26.1333 24 27.3333 22.8 27.3333 21.3334V5.33335C27.3333 3.86669 26.1333 2.66669 24.6667 2.66669ZM24.6667 21.3334H12.6667V5.33335H24.6667V21.3334ZM4.66667 20V17.3334H7.33334V20H4.66667ZM4.66667 12.6667H7.33334V15.3334H4.66667V12.6667ZM14 26.6667H16.6667V29.3334H14V26.6667ZM4.66667 24.6667V22H7.33334V24.6667H4.66667ZM7.33334 29.3334C5.86667 29.3334 4.66667 28.1334 4.66667 26.6667H7.33334V29.3334ZM12 29.3334H9.33334V26.6667H12V29.3334ZM18.6667 29.3334V26.6667H21.3333C21.3333 28.1334 20.1333 29.3334 18.6667 29.3334ZM7.33334 8.00002V10.6667H4.66667C4.66667 9.20002 5.86667 8.00002 7.33334 8.00002Z" fill="#262626"/>
</svg>
