<svg width="25" height="24" viewBox="0 0 25 24" fill="none" xmlns="http://www.w3.org/2000/svg">
<g id="Star">
<path id="Vector" d="M22.4842 10.7231L18.2561 14.4131L19.5226 19.9069C19.5897 20.1941 19.5705 20.4946 19.4677 20.771C19.3648 21.0474 19.1827 21.2874 18.9442 21.4608C18.7057 21.6343 18.4214 21.7336 18.1267 21.7464C17.8321 21.7591 17.5402 21.6847 17.2876 21.5325L12.4961 18.6262L7.71483 21.5325C7.46224 21.6847 7.17038 21.7591 6.87574 21.7464C6.5811 21.7336 6.29676 21.6343 6.05826 21.4608C5.81976 21.2874 5.63769 21.0474 5.53481 20.771C5.43193 20.4946 5.4128 20.1941 5.47983 19.9069L6.74451 14.4187L2.51545 10.7231C2.29177 10.5302 2.13003 10.2755 2.0505 9.99107C1.97098 9.7066 1.97721 9.40498 2.06842 9.12404C2.15964 8.84309 2.33176 8.59533 2.56322 8.41182C2.79468 8.22832 3.07517 8.11723 3.36951 8.0925L8.94389 7.60968L11.1198 2.41968C11.2335 2.14735 11.4251 1.91473 11.6707 1.75111C11.9163 1.58749 12.2047 1.50018 12.4998 1.50018C12.7949 1.50018 13.0834 1.58749 13.329 1.75111C13.5745 1.91473 13.7662 2.14735 13.8798 2.41968L16.0623 7.60968L21.6348 8.0925C21.9292 8.11723 22.2097 8.22832 22.4411 8.41182C22.6726 8.59533 22.8447 8.84309 22.9359 9.12404C23.0271 9.40498 23.0334 9.7066 22.9538 9.99107C22.8743 10.2755 22.7126 10.5302 22.4889 10.7231H22.4842Z" fill="#E5E5E5"/>
</g>
</svg>
