<svg width="37" height="58" viewBox="0 0 37 58" fill="none" xmlns="http://www.w3.org/2000/svg">
<path d="M10.3555 18.7586C16.5018 12.4097 17.6487 3.78692 17.4538 0.269135C20.4602 5.33474 19.2075 10.6536 19.5416 10.4848C19.8088 10.3497 20.5437 8.79624 20.8777 8.0364C22.5479 13.0345 27.5864 20.5316 29.8968 23.6554C20.7441 23.7904 16.7857 27.5953 15.9506 29.4808C20.8276 26.509 24.0511 26.2163 25.0532 26.4414C22.5758 27.0606 16.9194 29.9367 14.1134 36.4882C10.606 44.6776 17.2868 52.7826 25.0532 51.5162C31.2664 50.5031 33.2094 44.8465 33.4043 42.1448C30.8655 43.4281 29.0617 43.8615 28.4772 43.9178C32.4856 41.4188 34.1558 33.477 34.4899 29.8185C34.8518 31.0568 35.8236 33.09 36.1601 35.3063C36.6659 38.6382 36.5657 40.6989 35.5755 43.9178C32.4658 54.0273 21.2813 59.7524 11.5246 55.9064C2.98628 52.5407 -1.27231 44.1745 0.334231 35.053C1.56281 28.0774 4.96993 23.377 11.5246 20.8693C16.0693 19.1305 22.1304 19.7436 23.9676 20.8693C19.5583 17.3571 13.0556 17.9988 10.3555 18.7586Z" fill="#0D5B82"/>
</svg>
