<svg width="96" height="50" viewBox="0 0 96 50" fill="none" xmlns="http://www.w3.org/2000/svg">
<path d="M7.88987 16.433C12.5728 11.5958 13.4466 5.02604 13.2981 2.34583C15.5887 6.20534 14.6343 10.2578 14.8888 10.1292C15.0924 10.0263 15.6523 8.84267 15.9068 8.26374C17.1794 12.0718 21.0182 17.7839 22.7785 20.1639C15.805 20.2668 12.7891 23.1657 12.1529 24.6023C15.8687 22.3381 18.3247 22.1151 19.0882 22.2866C17.2006 22.7584 12.8909 24.9497 10.7531 29.9413C8.08075 36.1809 13.1709 42.3561 19.0882 41.3912C23.822 40.6193 25.3024 36.3095 25.4509 34.2511C23.5166 35.2289 22.1423 35.5591 21.6969 35.602C24.751 33.6979 26.0235 27.6471 26.278 24.8596C26.5537 25.8031 27.2942 27.3522 27.5505 29.0408C27.9359 31.5794 27.8596 33.1495 27.1052 35.602C24.7358 43.3044 16.2143 47.6664 8.78064 44.7361C2.27526 42.1717 -0.96938 35.7976 0.254653 28.8478C1.19071 23.5331 3.78661 19.9518 8.78064 18.0412C12.2433 16.7164 16.8612 17.1835 18.261 18.0412C14.9015 15.3652 9.94713 15.8541 7.88987 16.433Z" fill="#0D5B82"/>
<path d="M14.1415 11.9101C14.5961 10.6701 13.7627 4.84893 13.3839 2.47217C15.2147 5.62876 14.8149 8.47951 14.836 10.1743C15.1895 9.82704 15.7198 8.79698 15.9092 8.2803C16.8183 11.554 21.086 17.9037 22.98 20.4665C16.4143 20.3177 13.0051 23.1009 12.2476 24.5683C14.6718 22.981 17.74 21.9799 19.0658 22.2956C16.4774 22.9776 10.6821 26.8011 10.543 31.7509C10.4256 35.9279 11.5051 39.7558 15.5304 41.1088C20.5201 42.786 26.6416 37.2885 27.3992 34.3537C26.6416 39.3412 21.4579 45.0477 15.5304 45.1493C10.5147 45.2353 7.26427 42.0597 6.06065 37.4472C4.87659 32.9097 8.75426 27.2248 10.3536 26.2327C9.04045 25.9847 6.94448 27.6588 6.06063 28.5268C7.17175 20.0945 14.857 18.2344 18.5607 18.3584C14.5203 16.2503 13.5733 13.4602 14.1415 11.9101Z" fill="#1F92C5"/>
<circle cx="14.2047" cy="11.6263" r="0.946977" fill="#FAFAFA"/>
<path d="M40.6347 12.2853C41.5239 12.4511 42.2549 12.8957 42.8276 13.6192C43.4003 14.3426 43.6867 15.1715 43.6867 16.106C43.6867 16.95 43.4757 17.696 43.0537 18.3441C42.6467 18.9771 42.0514 19.4745 41.2677 19.8362C40.4839 20.1979 39.557 20.3788 38.4869 20.3788H31.6821V4.59878H38.1931C39.2631 4.59878 40.1825 4.77211 40.9512 5.11875C41.7349 5.4654 42.3227 5.94769 42.7145 6.56563C43.1215 7.18357 43.3249 7.8844 43.3249 8.66812C43.3249 9.58749 43.0763 10.3561 42.5789 10.9741C42.0966 11.592 41.4485 12.0291 40.6347 12.2853ZM34.8471 11.1097H37.7409C38.4945 11.1097 39.0747 10.9439 39.4817 10.6124C39.8886 10.2657 40.0921 9.77589 40.0921 9.14288C40.0921 8.50987 39.8886 8.02004 39.4817 7.6734C39.0747 7.32675 38.4945 7.15342 37.7409 7.15342H34.8471V11.1097ZM38.0348 17.8015C38.8035 17.8015 39.3988 17.6207 39.8208 17.259C40.2579 16.8972 40.4764 16.3848 40.4764 15.7216C40.4764 15.0434 40.2503 14.5159 39.7982 14.1391C39.346 13.7473 38.7356 13.5513 37.967 13.5513H34.8471V17.8015H38.0348ZM49.3742 3.64927V20.3788H46.2092V3.64927H49.3742ZM64.325 7.85426V20.3788H61.1373V18.7963C60.7304 19.3388 60.1953 19.7684 59.5322 20.0849C58.8841 20.3863 58.1757 20.537 57.4071 20.537C56.4274 20.537 55.5608 20.3336 54.8072 19.9266C54.0537 19.5046 53.4583 18.8942 53.0212 18.0954C52.5992 17.2816 52.3882 16.317 52.3882 15.2017V7.85426H55.5533V14.7495C55.5533 15.7443 55.802 16.5129 56.2993 17.0555C56.7967 17.583 57.4749 17.8467 58.334 17.8467C59.2082 17.8467 59.8939 17.583 60.3913 17.0555C60.8886 16.5129 61.1373 15.7443 61.1373 14.7495V7.85426H64.325ZM79.0906 13.8452C79.0906 14.2974 79.0605 14.7043 79.0002 15.066H69.8442C69.9195 15.9703 70.2361 16.6787 70.7937 17.1911C71.3514 17.7036 72.0371 17.9598 72.851 17.9598C74.0266 17.9598 74.863 17.4549 75.3604 16.4451H78.7741C78.4124 17.6508 77.7191 18.6455 76.6942 19.4293C75.6694 20.1979 74.4109 20.5823 72.9188 20.5823C71.7131 20.5823 70.6279 20.3185 69.6633 19.791C68.7138 19.2484 67.9678 18.4873 67.4252 17.5076C66.8977 16.528 66.6339 15.3976 66.6339 14.1165C66.6339 12.8204 66.8977 11.6825 67.4252 10.7028C67.9527 9.72314 68.6912 8.96956 69.6407 8.44205C70.5902 7.91454 71.6829 7.65079 72.9188 7.65079C74.1095 7.65079 75.172 7.90701 76.1065 8.41944C77.056 8.93188 77.7869 9.66285 78.2994 10.6124C78.8269 11.5468 79.0906 12.6244 79.0906 13.8452ZM75.8126 12.9409C75.7975 12.1271 75.5036 11.479 74.9309 10.9967C74.3581 10.4993 73.6573 10.2506 72.8284 10.2506C72.0446 10.2506 71.3815 10.4918 70.8389 10.9741C70.3114 11.4413 69.9874 12.0969 69.8668 12.9409H75.8126ZM40.6347 35.2853C41.5239 35.4511 42.2549 35.8957 42.8276 36.6192C43.4003 37.3426 43.6867 38.1715 43.6867 39.106C43.6867 39.95 43.4757 40.696 43.0537 41.3441C42.6467 41.9771 42.0514 42.4745 41.2677 42.8362C40.4839 43.1979 39.557 43.3788 38.4869 43.3788H31.6821V27.5988H38.1931C39.2631 27.5988 40.1825 27.7721 40.9512 28.1188C41.7349 28.4654 42.3227 28.9477 42.7145 29.5656C43.1215 30.1836 43.3249 30.8844 43.3249 31.6681C43.3249 32.5875 43.0763 33.3561 42.5789 33.9741C42.0966 34.592 41.4485 35.0291 40.6347 35.2853ZM34.8471 34.1097H37.7409C38.4945 34.1097 39.0747 33.9439 39.4817 33.6124C39.8886 33.2657 40.0921 32.7759 40.0921 32.1429C40.0921 31.5099 39.8886 31.02 39.4817 30.6734C39.0747 30.3267 38.4945 30.1534 37.7409 30.1534H34.8471V34.1097ZM38.0348 40.8015C38.8035 40.8015 39.3988 40.6207 39.8208 40.259C40.2579 39.8972 40.4764 39.3848 40.4764 38.7216C40.4764 38.0434 40.2503 37.5159 39.7982 37.1391C39.346 36.7473 38.7356 36.5513 37.967 36.5513H34.8471V40.8015H38.0348ZM45.3953 37.0713C45.3953 35.8053 45.644 34.6825 46.1413 33.7028C46.6538 32.7231 47.3395 31.9696 48.1986 31.4421C49.0728 30.9145 50.0449 30.6508 51.115 30.6508C52.0494 30.6508 52.8633 30.8392 53.5566 31.216C54.2649 31.5928 54.8301 32.0675 55.2521 32.6402V30.8543H58.4398V43.3788H55.2521V41.5476C54.8452 42.1354 54.28 42.6252 53.5566 43.0171C52.8482 43.3939 52.0268 43.5823 51.0924 43.5823C50.0374 43.5823 49.0728 43.311 48.1986 42.7684C47.3395 42.2258 46.6538 41.4647 46.1413 40.485C45.644 39.4903 45.3953 38.3524 45.3953 37.0713ZM55.2521 37.1165C55.2521 36.3479 55.1014 35.6923 54.8 35.1497C54.4986 34.592 54.0916 34.17 53.5792 33.8837C53.0668 33.5822 52.5166 33.4315 51.9288 33.4315C51.3411 33.4315 50.7985 33.5747 50.3011 33.861C49.8037 34.1474 49.3968 34.5694 49.0803 35.1271C48.7789 35.6696 48.6282 36.3177 48.6282 37.0713C48.6282 37.8249 48.7789 38.488 49.0803 39.0608C49.3968 39.6184 49.8037 40.048 50.3011 40.3494C50.8135 40.6508 51.3561 40.8015 51.9288 40.8015C52.5166 40.8015 53.0668 40.6584 53.5792 40.372C54.0916 40.0706 54.4986 39.6486 54.8 39.106C55.1014 38.5483 55.2521 37.8852 55.2521 37.1165ZM73.513 30.8543L65.7586 49.3019H62.3901L65.103 43.0623L60.0841 30.8543H63.6335L66.8664 39.6033L70.1444 30.8543H73.513Z" fill="#0D5B82"/>
</svg>
