<svg width="126" height="63" viewBox="0 0 126 63" fill="none" xmlns="http://www.w3.org/2000/svg">
<path d="M10.3555 19.7586C16.5018 13.4097 17.6487 4.78695 17.4538 1.26917C20.4602 6.33477 19.2075 11.6537 19.5416 11.4848C19.8088 11.3497 20.5437 9.79627 20.8777 9.03643C22.5479 14.0345 27.5864 21.5316 29.8968 24.6554C20.7441 24.7905 16.7857 28.5953 15.9506 30.4808C20.8276 27.509 24.0511 27.2163 25.0532 27.4415C22.5758 28.0606 16.9194 30.9368 14.1134 37.4883C10.606 45.6777 17.2868 53.7826 25.0532 52.5162C31.2664 51.5031 33.2094 45.8465 33.4043 43.1449C30.8655 44.4282 29.0617 44.8615 28.4772 44.9178C32.4856 42.4188 34.1558 34.477 34.4899 30.8186C34.8518 32.0568 35.8236 34.09 36.1601 36.3063C36.6659 39.6382 36.5657 41.699 35.5755 44.9178C32.4658 55.0273 21.2813 60.7525 11.5246 56.9064C2.98628 53.5407 -1.27231 45.1746 0.334231 36.053C1.56281 29.0775 4.96993 24.3771 11.5246 21.8693C16.0693 20.1305 22.1304 20.7436 23.9676 21.8693C19.5583 18.3572 13.0556 18.9988 10.3555 19.7586Z" fill="#0D5B82"/>
<path d="M18.561 13.8223C19.1576 12.1947 18.0638 4.5545 17.5667 1.435C19.9696 5.57802 19.4449 9.31964 19.4725 11.544C19.9365 11.0883 20.6325 9.73632 20.8811 9.05817C22.0743 13.3549 27.6757 21.6889 30.1615 25.0525C21.544 24.8572 17.0695 28.5102 16.0752 30.4362C19.257 28.3529 23.2841 27.0389 25.0241 27.4532C21.6269 28.3484 14.0206 33.3667 13.838 39.8634C13.6838 45.3456 15.1007 50.3697 20.3839 52.1456C26.9329 54.347 34.9674 47.1315 35.9617 43.2796C34.9674 49.8255 28.1638 57.3154 20.3839 57.4487C13.8008 57.5615 9.53463 53.3936 7.95487 47.3397C6.4008 41.3843 11.4902 33.9228 13.5894 32.6207C11.8659 32.2952 9.1149 34.4924 7.95485 35.6317C9.4132 24.5643 19.5001 22.1229 24.3612 22.2857C19.0582 19.5188 17.8153 15.8568 18.561 13.8223Z" fill="#1F92C5"/>
<circle cx="18.6435" cy="13.4498" r="1.24291" fill="#FAFAFA"/>
<path d="M53.3328 14.3773C54.4999 14.5949 55.4593 15.1785 56.211 16.128C56.9627 17.0775 57.3386 18.1655 57.3386 19.3919C57.3386 20.4997 57.0616 21.4789 56.5078 22.3295C55.9737 23.1603 55.1923 23.8131 54.1637 24.2879C53.135 24.7626 51.9184 25 50.514 25H41.5826V4.28875H50.1282C51.5327 4.28875 52.7394 4.51624 53.7482 4.97121C54.7769 5.42619 55.5484 6.05919 56.0627 6.87024C56.5968 7.68128 56.8638 8.60112 56.8638 9.62976C56.8638 10.8364 56.5374 11.8453 55.8846 12.6563C55.2516 13.4674 54.401 14.041 53.3328 14.3773ZM45.7367 12.8344H49.5348C50.5239 12.8344 51.2854 12.6168 51.8195 12.1816C52.3536 11.7266 52.6207 11.0837 52.6207 10.2529C52.6207 9.42205 52.3536 8.77915 51.8195 8.32418C51.2854 7.8692 50.5239 7.64172 49.5348 7.64172H45.7367V12.8344ZM49.9205 21.6174C50.9294 21.6174 51.7107 21.38 52.2646 20.9052C52.8383 20.4305 53.1251 19.7579 53.1251 18.8875C53.1251 17.9973 52.8284 17.305 52.235 16.8105C51.6415 16.2961 50.8404 16.039 49.8315 16.039H45.7367V21.6174H49.9205ZM64.8035 3.04251V25H60.6494V3.04251H64.8035ZM84.4264 8.56156V25H80.2426V22.9229C79.7085 23.6351 79.0062 24.1988 78.1358 24.6143C77.2852 25.0099 76.3555 25.2077 75.3466 25.2077C74.0608 25.2077 72.9234 24.9407 71.9343 24.4066C70.9453 23.8527 70.1639 23.0515 69.5902 22.0031C69.0363 20.9349 68.7594 19.6689 68.7594 18.205V8.56156H72.9135V17.6116C72.9135 18.9172 73.2399 19.926 73.8927 20.6382C74.5455 21.3305 75.4357 21.6767 76.5632 21.6767C77.7105 21.6767 78.6106 21.3305 79.2634 20.6382C79.9162 19.926 80.2426 18.9172 80.2426 17.6116V8.56156H84.4264ZM103.806 16.4247C103.806 17.0182 103.767 17.5523 103.688 18.027H91.6703C91.7692 19.2139 92.1847 20.1436 92.9166 20.8162C93.6485 21.4888 94.5486 21.8251 95.6168 21.8251C97.1597 21.8251 98.2576 21.1624 98.9104 19.837H103.391C102.916 21.4195 102.006 22.7251 100.661 23.7538C99.3159 24.7626 97.6641 25.2671 95.7058 25.2671C94.1232 25.2671 92.699 24.9209 91.433 24.2285C90.1867 23.5164 89.2075 22.5174 88.4954 21.2316C87.8031 19.9458 87.4569 18.4622 87.4569 16.7808C87.4569 15.0796 87.8031 13.5861 88.4954 12.3003C89.1878 11.0145 90.1571 10.0254 91.4033 9.33304C92.6495 8.64068 94.0837 8.29451 95.7058 8.29451C97.2685 8.29451 98.6631 8.63079 99.8896 9.30336C101.136 9.97593 102.095 10.9353 102.768 12.1816C103.46 13.408 103.806 14.8224 103.806 16.4247ZM99.5038 15.2378C99.484 14.1696 99.0983 13.319 98.3466 12.686C97.5949 12.0332 96.6751 11.7068 95.5871 11.7068C94.5584 11.7068 93.6881 12.0233 92.9759 12.6563C92.2836 13.2696 91.8583 14.1301 91.7 15.2378H99.5038ZM53.3328 44.3773C54.4999 44.5949 55.4593 45.1785 56.211 46.128C56.9627 47.0775 57.3386 48.1655 57.3386 49.3919C57.3386 50.4997 57.0616 51.4789 56.5078 52.3295C55.9737 53.1603 55.1923 53.8131 54.1637 54.2879C53.135 54.7626 51.9184 55 50.514 55H41.5826V34.2887H50.1282C51.5327 34.2887 52.7394 34.5162 53.7482 34.9712C54.7769 35.4262 55.5484 36.0592 56.0627 36.8702C56.5968 37.6813 56.8638 38.6011 56.8638 39.6298C56.8638 40.8364 56.5374 41.8453 55.8846 42.6563C55.2516 43.4674 54.401 44.041 53.3328 44.3773ZM45.7367 42.8344H49.5348C50.5239 42.8344 51.2854 42.6168 51.8195 42.1816C52.3536 41.7266 52.6207 41.0837 52.6207 40.2529C52.6207 39.4221 52.3536 38.7792 51.8195 38.3242C51.2854 37.8692 50.5239 37.6417 49.5348 37.6417H45.7367V42.8344ZM49.9205 51.6174C50.9294 51.6174 51.7107 51.38 52.2646 50.9052C52.8383 50.4305 53.1251 49.7579 53.1251 48.8875C53.1251 47.9973 52.8284 47.305 52.235 46.8105C51.6415 46.2961 50.8404 46.039 49.8315 46.039H45.7367V51.6174H49.9205ZM59.5812 46.7214C59.5812 45.0598 59.9076 43.5861 60.5603 42.3003C61.2329 41.0145 62.133 40.0254 63.2605 39.333C64.4079 38.6407 65.6838 38.2945 67.0882 38.2945C68.3147 38.2945 69.3829 38.5418 70.2929 39.0363C71.2226 39.5309 71.9644 40.154 72.5183 40.9057V38.5616H76.7021V55H72.5183V52.5965C71.9842 53.368 71.2424 54.0109 70.2929 54.5252C69.3631 55.0198 68.285 55.2671 67.0586 55.2671C65.6739 55.2671 64.4079 54.911 63.2605 54.1988C62.133 53.4867 61.2329 52.4877 60.5603 51.2019C59.9076 49.8964 59.5812 48.4029 59.5812 46.7214ZM72.5183 46.7808C72.5183 45.7719 72.3205 44.9114 71.9248 44.1993C71.5292 43.4674 70.9951 42.9135 70.3225 42.5376C69.65 42.142 68.9279 41.9442 68.1564 41.9442C67.385 41.9442 66.6728 42.1321 66.02 42.508C65.3673 42.8838 64.8332 43.4377 64.4177 44.1696C64.0221 44.8818 63.8243 45.7324 63.8243 46.7214C63.8243 47.7105 64.0221 48.5809 64.4177 49.3326C64.8332 50.0645 65.3673 50.6283 66.02 51.0239C66.6926 51.4195 67.4048 51.6174 68.1564 51.6174C68.9279 51.6174 69.65 51.4294 70.3225 51.0536C70.9951 50.658 71.5292 50.1041 71.9248 49.3919C72.3205 48.66 72.5183 47.7896 72.5183 46.7808ZM96.4856 38.5616L86.308 62.7741H81.8868L85.4475 54.5846L78.8603 38.5616H83.5188L87.7619 50.0447L92.0644 38.5616H96.4856Z" fill="#0D5B82"/>
</svg>
