<svg width="37" height="58" viewBox="0 0 37 58" fill="none" xmlns="http://www.w3.org/2000/svg">
<path d="M10.3555 18.7586C16.5018 12.4097 17.6487 3.78692 17.4538 0.269135C20.4602 5.33474 19.2075 10.6536 19.5416 10.4848C19.8088 10.3497 20.5437 8.79624 20.8777 8.0364C22.5479 13.0345 27.5864 20.5316 29.8968 23.6554C20.7441 23.7904 16.7857 27.5953 15.9506 29.4808C20.8276 26.509 24.0511 26.2163 25.0532 26.4414C22.5758 27.0606 16.9194 29.9367 14.1134 36.4882C10.606 44.6776 17.2868 52.7826 25.0532 51.5162C31.2664 50.5031 33.2094 44.8465 33.4043 42.1448C30.8655 43.4281 29.0617 43.8615 28.4772 43.9178C32.4856 41.4188 34.1558 33.477 34.4899 29.8185C34.8518 31.0568 35.8236 33.09 36.1601 35.3063C36.6659 38.6382 36.5657 40.6989 35.5755 43.9178C32.4658 54.0273 21.2813 59.7524 11.5246 55.9064C2.98628 52.5407 -1.27231 44.1745 0.334231 35.053C1.56281 28.0774 4.96993 23.377 11.5246 20.8693C16.0693 19.1305 22.1304 19.7436 23.9676 20.8693C19.5583 17.3571 13.0556 17.9988 10.3555 18.7586Z" fill="#0D5B82"/>
<path d="M18.561 12.8223C19.1576 11.1947 18.0638 3.55447 17.5667 0.434967C19.9696 4.57799 19.4449 8.31961 19.4725 10.544C19.9365 10.0882 20.6325 8.73629 20.8811 8.05813C22.0743 12.3549 27.6757 20.6889 30.1615 24.0525C21.544 23.8572 17.0695 27.5102 16.0752 29.4361C19.257 27.3529 23.2841 26.0389 25.0241 26.4532C21.6269 27.3483 14.0206 32.3667 13.838 38.8634C13.6838 44.3456 15.1007 49.3697 20.3839 51.1456C26.9329 53.3469 34.9674 46.1314 35.9617 42.2795C34.9674 48.8255 28.1638 56.3153 20.3839 56.4487C13.8008 56.5615 9.53463 52.3936 7.95487 46.3397C6.4008 40.3842 11.4902 32.9227 13.5894 31.6207C11.8659 31.2952 9.1149 33.4924 7.95485 34.6317C9.4132 23.5642 19.5001 21.1229 24.3612 21.2856C19.0582 18.5188 17.8153 14.8567 18.561 12.8223Z" fill="#1F92C5"/>
<circle cx="18.6435" cy="12.4497" r="1.24291" fill="#FAFAFA"/>
</svg>
