<svg width="40" height="40" viewBox="0 0 40 40" fill="none" xmlns="http://www.w3.org/2000/svg">
<path d="M36.6407 17.8719L29.5938 24.0219L31.7047 33.1782C31.8164 33.6568 31.7845 34.1578 31.6131 34.6185C31.4416 35.0791 31.1382 35.479 30.7407 35.7681C30.3432 36.0572 29.8693 36.2227 29.3782 36.244C28.8871 36.2652 28.4007 36.1413 27.9797 35.8876L19.9938 31.0438L12.025 35.8876C11.604 36.1413 11.1176 36.2652 10.6266 36.244C10.1355 36.2227 9.66159 36.0572 9.26409 35.7681C8.86659 35.479 8.56314 35.0791 8.39167 34.6185C8.2202 34.1578 8.18833 33.6568 8.30003 33.1782L10.4078 24.0313L3.35941 17.8719C2.98661 17.5504 2.71704 17.126 2.5845 16.6518C2.45196 16.1777 2.46235 15.675 2.61437 15.2068C2.76639 14.7385 3.05327 14.3256 3.43903 14.0198C3.8248 13.7139 4.29228 13.5288 4.78285 13.4876L14.0735 12.6829L17.7 4.03287C17.8894 3.57899 18.2089 3.19128 18.6181 2.91858C19.0274 2.64588 19.5082 2.50037 20 2.50037C20.4918 2.50037 20.9727 2.64588 21.3819 2.91858C21.7912 3.19128 22.1106 3.57899 22.3 4.03287L25.9375 12.6829L35.225 13.4876C35.7156 13.5288 36.1831 13.7139 36.5688 14.0198C36.9546 14.3256 37.2415 14.7385 37.3935 15.2068C37.5455 15.675 37.5559 16.1777 37.4234 16.6518C37.2908 17.126 37.0213 17.5504 36.6485 17.8719H36.6407Z" fill="#1F92C5"/>
</svg>
