<svg width="28" height="28" viewBox="0 0 28 28" fill="none" xmlns="http://www.w3.org/2000/svg">
<path d="M5.9551 5.83333H12.9551C13.5968 5.83333 14.1218 5.30833 14.1218 4.66667C14.1218 4.025 13.5968 3.5 12.9551 3.5H5.9551C4.67177 3.5 3.62177 4.55 3.62177 5.83333V22.1667C3.62177 23.45 4.67177 24.5 5.9551 24.5H12.9551C13.5968 24.5 14.1218 23.975 14.1218 23.3333C14.1218 22.6917 13.5968 22.1667 12.9551 22.1667H5.9551V5.83333Z" fill="#262626"/>
<path d="M24.2134 13.5917L20.9584 10.3367C20.5851 9.96333 19.9551 10.22 19.9551 10.745V12.8333H11.7884C11.1468 12.8333 10.6218 13.3583 10.6218 14C10.6218 14.6417 11.1468 15.1667 11.7884 15.1667H19.9551V17.255C19.9551 17.78 20.5851 18.0367 20.9468 17.6633L24.2018 14.4083C24.4351 14.1867 24.4351 13.8133 24.2134 13.5917Z" fill="#262626"/>
</svg>
