<svg width="24" height="24" viewBox="0 0 24 24" fill="none" xmlns="http://www.w3.org/2000/svg">
<path d="M20.3 17.61L3.83 18.47C3.42 18.49 3.06 18.17 3.04 17.76C3.02 17.35 3.34 16.99 3.75 16.97L20.23 16.11C20.64 16.09 21 16.41 21.02 16.82C21.04 17.23 20.72 17.59 20.3 17.61ZM20.25 19.49H3.75C3.34 19.49 3 19.83 3 20.24C3 20.65 3.34 20.99 3.75 20.99H20.25C20.66 20.99 21 20.65 21 20.24C21 19.83 20.66 19.49 20.25 19.49ZM22 5.01001V12.01C22 13.11 21.1 14.01 20 14.01H4C2.9 14.01 2 13.11 2 12.01V5.01001C2 3.91001 2.9 3.01001 4 3.01001H20C21.1 3.01001 22 3.91001 22 5.01001ZM19.12 6.10001C17.87 6.37001 16.93 7.21001 16.79 8.24001C16.15 7.51001 14.06 5.51001 10.25 5.51001C6.81 5.51001 4.77 7.14001 3.94 8.00001C3.66 8.29001 3.66 8.74001 3.94 9.03001C4.77 9.89001 6.81 11.52 10.25 11.52C14.06 11.52 16.15 9.52001 16.79 8.79001C16.93 9.81001 17.87 10.65 19.12 10.93C19.58 11.03 20 10.65 20 10.19V6.85001C20 6.38001 19.57 6.00001 19.12 6.10001Z" fill="#262626"/>
</svg>
