<svg width="32" height="32" viewBox="0 0 32 32" fill="none" xmlns="http://www.w3.org/2000/svg">
<g id="newspaper">
<path id="Vector" d="M28.2 4.85499L27.1067 5.94832L25.84 4.66832C25.32 4.14832 24.48 4.14832 23.9467 4.66832L22.6667 5.94832L21.3867 4.66832C20.8667 4.14832 20.0134 4.14832 19.4934 4.66832L18.2267 5.94832L16.9467 4.66832C16.4267 4.14832 15.5867 4.14832 15.0667 4.66832L13.7867 5.94832L12.5067 4.66832C11.9867 4.14832 11.1467 4.14832 10.6134 4.66832L9.33335 5.94832L8.05335 4.66832C7.53335 4.14832 6.68002 4.14832 6.16002 4.66832L4.89335 5.94832L3.80002 4.85499C3.38669 4.44165 2.66669 4.73499 2.66669 5.33499V25.055C2.66669 26.5217 3.86669 27.7217 5.33335 27.7217H26.6667C28.1334 27.7217 29.3334 26.5217 29.3334 25.055V5.33499C29.3334 4.73499 28.6134 4.44165 28.2 4.85499ZM14.6667 25.055H5.33335V17.055H14.6667V25.055ZM26.6667 25.055H17.3334V22.3883H26.6667V25.055ZM26.6667 19.7217H17.3334V17.055H26.6667V19.7217ZM26.6667 14.3883H5.33335V10.3883H26.6667V14.3883Z" fill="#1382B9"/>
</g>
</svg>
