<svg width="32" height="32" viewBox="0 0 32 32" fill="none" xmlns="http://www.w3.org/2000/svg">
<g id="check_circle">
<path id="Vector" d="M16 2.66666C8.63999 2.66666 2.66666 8.63999 2.66666 16C2.66666 23.36 8.63999 29.3333 16 29.3333C23.36 29.3333 29.3333 23.36 29.3333 16C29.3333 8.63999 23.36 2.66666 16 2.66666ZM12.3867 21.72L7.59999 16.9333C7.07999 16.4133 7.07999 15.5733 7.59999 15.0533C8.11999 14.5333 8.95999 14.5333 9.47999 15.0533L13.3333 18.8933L22.5067 9.71999C23.0267 9.19999 23.8667 9.19999 24.3867 9.71999C24.9067 10.24 24.9067 11.08 24.3867 11.6L14.2667 21.72C13.76 22.24 12.9067 22.24 12.3867 21.72Z" fill="#1382B9"/>
</g>
</svg>
