<svg width="32" height="32" viewBox="0 0 32 32" fill="none" xmlns="http://www.w3.org/2000/svg">
<g id="inventory">
<g id="Vector">
<path d="M5.9625 7.99999H8.62917V9.33332C8.62917 10.8 9.82917 12 11.2958 12H19.2958C20.7625 12 21.9625 10.8 21.9625 9.33332V7.99999H24.6292V14.6667H27.2958V7.99999C27.2958 6.53332 26.0958 5.33332 24.6292 5.33332H19.0558C18.4958 3.78666 17.0292 2.66666 15.2958 2.66666C13.5625 2.66666 12.0958 3.78666 11.5358 5.33332H5.9625C4.49584 5.33332 3.29584 6.53332 3.29584 7.99999V26.6667C3.29584 28.1333 4.49584 29.3333 5.9625 29.3333H13.9625V26.6667H5.9625V7.99999ZM15.2958 5.33332C16.0292 5.33332 16.6292 5.93332 16.6292 6.66666C16.6292 7.39999 16.0292 7.99999 15.2958 7.99999C14.5625 7.99999 13.9625 7.39999 13.9625 6.66666C13.9625 5.93332 14.5625 5.33332 15.2958 5.33332Z" fill="#1382B9"/>
<path d="M28.2958 17.6667C27.7492 17.12 26.8425 17.12 26.2958 17.6667L19.9758 24L16.9625 21C16.4158 20.4533 15.5225 20.4533 14.9625 21C14.4158 21.5467 14.4158 22.4533 14.9625 23L19.0292 27.0533C19.5492 27.5733 20.3892 27.5733 20.9092 27.0533L28.2825 19.6667C28.8425 19.12 28.8425 18.2133 28.2958 17.6667Z" fill="#1382B9"/>
</g>
</g>
</svg>
