<svg width="32" height="32" viewBox="0 0 32 32" fill="none" xmlns="http://www.w3.org/2000/svg">
<g id="local_shipping">
<path id="Vector" d="M26 10.6666H22.6667V7.99998C22.6667 6.53331 21.4667 5.33331 20 5.33331H3.99999C2.53333 5.33331 1.33333 6.53331 1.33333 7.99998V20C1.33333 21.4666 2.53333 22.6666 3.99999 22.6666C3.99999 24.88 5.78666 26.6666 7.99999 26.6666C10.2133 26.6666 12 24.88 12 22.6666H20C20 24.88 21.7867 26.6666 24 26.6666C26.2133 26.6666 28 24.88 28 22.6666H29.3333C30.0667 22.6666 30.6667 22.0666 30.6667 21.3333V16.8933C30.6667 16.32 30.48 15.76 30.1333 15.2933L27.0667 11.2C26.8133 10.8666 26.4133 10.6666 26 10.6666ZM7.99999 24C7.26666 24 6.66666 23.4 6.66666 22.6666C6.66666 21.9333 7.26666 21.3333 7.99999 21.3333C8.73333 21.3333 9.33333 21.9333 9.33333 22.6666C9.33333 23.4 8.73333 24 7.99999 24ZM26 12.6666L28.6133 16H22.6667V12.6666H26ZM24 24C23.2667 24 22.6667 23.4 22.6667 22.6666C22.6667 21.9333 23.2667 21.3333 24 21.3333C24.7333 21.3333 25.3333 21.9333 25.3333 22.6666C25.3333 23.4 24.7333 24 24 24Z" fill="#1382B9"/>
</g>
</svg>
