<svg width="33" height="32" viewBox="0 0 33 32" fill="none" xmlns="http://www.w3.org/2000/svg">
<g id="inventory_2">
<path id="Vector" d="M27.1667 2.66666H5.83335C4.50002 2.66666 3.16669 3.86666 3.16669 5.33332V9.34666C3.16669 10.3067 3.74002 11.1333 4.50002 11.6V26.6667C4.50002 28.1333 5.96669 29.3333 7.16669 29.3333H25.8334C27.0334 29.3333 28.5 28.1333 28.5 26.6667V11.6C29.26 11.1333 29.8334 10.3067 29.8334 9.34666V5.33332C29.8334 3.86666 28.5 2.66666 27.1667 2.66666ZM19.1667 18.6667H13.8334C13.1 18.6667 12.5 18.0667 12.5 17.3333C12.5 16.6 13.1 16 13.8334 16H19.1667C19.9 16 20.5 16.6 20.5 17.3333C20.5 18.0667 19.9 18.6667 19.1667 18.6667ZM27.1667 9.33332H5.83335V5.33332H27.1667V9.33332Z" fill="#1382B9"/>
</g>
</svg>
