<svg width="25" height="24" viewBox="0 0 25 24" fill="none" xmlns="http://www.w3.org/2000/svg">
<g id="trending_up">
<path id="Vector" d="M17.1461 7.05374L18.5861 8.49374L13.7061 13.3737L10.4161 10.0837C10.0261 9.69374 9.39609 9.69374 9.00609 10.0837L3.00609 16.0937C2.61609 16.4837 2.61609 17.1137 3.00609 17.5037C3.39609 17.8937 4.02609 17.8937 4.41609 17.5037L9.70609 12.2037L12.9961 15.4937C13.3861 15.8837 14.0161 15.8837 14.4061 15.4937L19.9961 9.91374L21.4361 11.3537C21.7461 11.6637 22.2861 11.4437 22.2861 11.0037V6.70374C22.2961 6.42374 22.0761 6.20374 21.7961 6.20374H17.5061C17.0561 6.20374 16.8361 6.74374 17.1461 7.05374Z" fill="#106E9E"/>
</g>
</svg>
