<svg width="28" height="28" viewBox="0 0 28 28" fill="none" xmlns="http://www.w3.org/2000/svg">
<g id="payment">
<path id="Vector" d="M23.3334 4.66669H4.66671C3.37171 4.66669 2.34504 5.70502 2.34504 7.00002L2.33337 21C2.33337 22.295 3.37171 23.3334 4.66671 23.3334H23.3334C24.6284 23.3334 25.6667 22.295 25.6667 21V7.00002C25.6667 5.70502 24.6284 4.66669 23.3334 4.66669ZM22.1667 21H5.83337C5.19171 21 4.66671 20.475 4.66671 19.8334V14H23.3334V19.8334C23.3334 20.475 22.8084 21 22.1667 21ZM23.3334 9.33335H4.66671V8.16669C4.66671 7.52502 5.19171 7.00002 5.83337 7.00002H22.1667C22.8084 7.00002 23.3334 7.52502 23.3334 8.16669V9.33335Z" fill="#262626"/>
</g>
</svg>
