<svg width="21" height="20" viewBox="0 0 21 20" fill="none" xmlns="http://www.w3.org/2000/svg">
<g id="add">
<path id="Vector" d="M15.5001 10.8334H11.3334V15C11.3334 15.4584 10.9584 15.8334 10.5001 15.8334C10.0417 15.8334 9.66675 15.4584 9.66675 15V10.8334H5.50008C5.04175 10.8334 4.66675 10.4584 4.66675 10C4.66675 9.54169 5.04175 9.16669 5.50008 9.16669H9.66675V5.00002C9.66675 4.54169 10.0417 4.16669 10.5001 4.16669C10.9584 4.16669 11.3334 4.54169 11.3334 5.00002V9.16669H15.5001C15.9584 9.16669 16.3334 9.54169 16.3334 10C16.3334 10.4584 15.9584 10.8334 15.5001 10.8334Z" fill="#262626"/>
</g>
</svg>
