<svg width="36" height="35" viewBox="0 0 36 35" fill="none" xmlns="http://www.w3.org/2000/svg">
<path d="M34.6407 15.8719L27.5938 22.0219L29.7047 31.1781C29.8164 31.6568 29.7845 32.1577 29.6131 32.6184C29.4416 33.079 29.1382 33.4789 28.7407 33.768C28.3432 34.0572 27.8693 34.2227 27.3782 34.2439C26.8871 34.2652 26.4007 34.1412 25.9797 33.8875L17.9938 29.0437L10.025 33.8875C9.60405 34.1412 9.11762 34.2652 8.62655 34.2439C8.13549 34.2227 7.66159 34.0572 7.26409 33.768C6.86659 33.4789 6.56314 33.079 6.39167 32.6184C6.2202 32.1577 6.18833 31.6568 6.30003 31.1781L8.40785 22.0312L1.35941 15.8719C0.986611 15.5503 0.717038 15.1259 0.584497 14.6518C0.451956 14.1777 0.462347 13.675 0.614366 13.2067C0.766385 12.7385 1.05327 12.3256 1.43903 12.0197C1.8248 11.7139 2.29228 11.5287 2.78285 11.4875L12.0735 10.6828L15.7 2.03281C15.8894 1.57892 16.2089 1.19122 16.6181 0.918521C17.0274 0.645818 17.5082 0.500305 18 0.500305C18.4918 0.500305 18.9727 0.645818 19.3819 0.918521C19.7912 1.19122 20.1106 1.57892 20.3 2.03281L23.9375 10.6828L33.225 11.4875C33.7156 11.5287 34.1831 11.7139 34.5688 12.0197C34.9546 12.3256 35.2415 12.7385 35.3935 13.2067C35.5455 13.675 35.5559 14.1777 35.4234 14.6518C35.2908 15.1259 35.0213 15.5503 34.6485 15.8719H34.6407Z" fill="#1F92C5"/>
</svg>
