<svg width="24" height="24" viewBox="0 0 24 24" fill="none" xmlns="http://www.w3.org/2000/svg">
<g id="newspaper">
<path id="Vector" d="M21.15 3.64125L20.33 4.46125L19.38 3.50125C18.99 3.11125 18.36 3.11125 17.96 3.50125L17 4.46125L16.04 3.50125C15.65 3.11125 15.01 3.11125 14.62 3.50125L13.67 4.46125L12.71 3.50125C12.32 3.11125 11.69 3.11125 11.3 3.50125L10.34 4.46125L9.38 3.50125C8.99 3.11125 8.36 3.11125 7.96 3.50125L7 4.46125L6.04 3.50125C5.65 3.11125 5.01 3.11125 4.62 3.50125L3.67 4.46125L2.85 3.64125C2.54 3.33125 2 3.55125 2 4.00125V18.7912C2 19.8912 2.9 20.7912 4 20.7912H20C21.1 20.7912 22 19.8912 22 18.7912V4.00125C22 3.55125 21.46 3.33125 21.15 3.64125ZM11 18.7912H4V12.7912H11V18.7912ZM20 18.7912H13V16.7912H20V18.7912ZM20 14.7912H13V12.7912H20V14.7912ZM20 10.7912H4V7.79125H20V10.7912Z" fill="#525252"/>
</g>
</svg>
