<svg width="24" height="24" viewBox="0 0 24 24" fill="none" xmlns="http://www.w3.org/2000/svg">
<g id="newspaper">
<path id="Vector" d="M21.15 3.64124L20.33 4.46124L19.38 3.50124C18.99 3.11124 18.36 3.11124 17.96 3.50124L17 4.46124L16.04 3.50124C15.65 3.11124 15.01 3.11124 14.62 3.50124L13.67 4.46124L12.71 3.50124C12.32 3.11124 11.69 3.11124 11.3 3.50124L10.34 4.46124L9.38 3.50124C8.99 3.11124 8.36 3.11124 7.96 3.50124L7 4.46124L6.04 3.50124C5.65 3.11124 5.01 3.11124 4.62 3.50124L3.67 4.46124L2.85 3.64124C2.54 3.33124 2 3.55124 2 4.00124V18.7912C2 19.8912 2.9 20.7912 4 20.7912H20C21.1 20.7912 22 19.8912 22 18.7912V4.00124C22 3.55124 21.46 3.33124 21.15 3.64124ZM11 18.7912H4V12.7912H11V18.7912ZM20 18.7912H13V16.7912H20V18.7912ZM20 14.7912H13V12.7912H20V14.7912ZM20 10.7912H4V7.79124H20V10.7912Z" fill="#FAFAFA"/>
</g>
</svg>
